<svg width="61" height="61" viewBox="0 0 61 61" fill="none" xmlns="http://www.w3.org/2000/svg">
<g opacity="0.5">
<circle cx="40" cy="59" r="2" transform="rotate(-90 40 59)" fill="#882F2F"/>
<circle cx="50" cy="59" r="2" transform="rotate(-90 50 59)" fill="#882F2F"/>
<circle cx="59" cy="59" r="2" transform="rotate(-90 59 59)" fill="#882F2F"/>
<circle cx="40" cy="50" r="2" transform="rotate(-90 40 50)" fill="#882F2F"/>
<circle cx="50" cy="50" r="2" transform="rotate(-90 50 50)" fill="#882F2F"/>
<circle cx="59" cy="50" r="2" transform="rotate(-90 59 50)" fill="#882F2F"/>
<circle cx="40" cy="40" r="2" transform="rotate(-90 40 40)" fill="#882F2F"/>
<circle cx="31" cy="40" r="2" transform="rotate(-90 31 40)" fill="#882F2F"/>
<circle cx="21" cy="40" r="2" transform="rotate(-90 21 40)" fill="#882F2F"/>
<circle cx="50" cy="40" r="2" transform="rotate(-90 50 40)" fill="#882F2F"/>
<circle cx="59" cy="40" r="2" transform="rotate(-90 59 40)" fill="#882F2F"/>
<circle cx="40" cy="31" r="2" transform="rotate(-90 40 31)" fill="#882F2F"/>
<circle cx="50" cy="31" r="2" transform="rotate(-90 50 31)" fill="#882F2F"/>
<circle cx="59" cy="31" r="2" transform="rotate(-90 59 31)" fill="#882F2F"/>
<circle cx="2" cy="21" r="2" transform="rotate(-90 2 21)" fill="#882F2F"/>
<circle cx="12" cy="21" r="2" transform="rotate(-90 12 21)" fill="#882F2F"/>
<circle cx="21" cy="21" r="2" transform="rotate(-90 21 21)" fill="#882F2F"/>
<circle cx="21" cy="31" r="2" transform="rotate(-90 21 31)" fill="#882F2F"/>
<circle cx="31" cy="21" r="2" transform="rotate(-90 31 21)" fill="#882F2F"/>
<circle cx="31" cy="31" r="2" transform="rotate(-90 31 31)" fill="#882F2F"/>
<circle cx="50" cy="21" r="2" transform="rotate(-90 50 21)" fill="#882F2F"/>
<circle cx="40" cy="21" r="2" transform="rotate(-90 40 21)" fill="#882F2F"/>
<circle cx="59" cy="21" r="2" transform="rotate(-90 59 21)" fill="#882F2F"/>
<circle cx="2" cy="12" r="2" transform="rotate(-90 2 12)" fill="#882F2F"/>
<circle cx="12" cy="12" r="2" transform="rotate(-90 12 12)" fill="#882F2F"/>
<circle cx="21" cy="12" r="2" transform="rotate(-90 21 12)" fill="#882F2F"/>
<circle cx="31" cy="12" r="2" transform="rotate(-90 31 12)" fill="#882F2F"/>
<circle cx="40" cy="12" r="2" transform="rotate(-90 40 12)" fill="#882F2F"/>
<circle cx="50" cy="12" r="2" transform="rotate(-90 50 12)" fill="#882F2F"/>
<circle cx="59" cy="12" r="2" transform="rotate(-90 59 12)" fill="#882F2F"/>
<circle cx="2" cy="2" r="2" transform="rotate(-90 2 2)" fill="#882F2F"/>
<circle cx="12" cy="2" r="2" transform="rotate(-90 12 2)" fill="#882F2F"/>
<circle cx="21" cy="2" r="2" transform="rotate(-90 21 2)" fill="#882F2F"/>
<circle cx="31" cy="2" r="2" transform="rotate(-90 31 2)" fill="#882F2F"/>
<circle cx="40" cy="2" r="2" transform="rotate(-90 40 2)" fill="#882F2F"/>
<circle cx="50" cy="2" r="2" transform="rotate(-90 50 2)" fill="#882F2F"/>
<circle cx="59" cy="2" r="2" transform="rotate(-90 59 2)" fill="#882F2F"/>
</g>
</svg>
