<svg width="19" height="21" viewBox="0 0 19 21" fill="none" xmlns="http://www.w3.org/2000/svg">
<path d="M5.62669 4.35683C5.4437 4.32974 5.25711 4.3672 5.09797 4.46296H5.08418C4.71497 4.68324 4.38218 4.96058 4.09862 5.28699C3.86232 5.56434 3.73433 5.84469 3.70085 6.11503C3.68116 6.27523 3.69494 6.43743 3.74122 6.59062L3.75894 6.60064C4.02478 7.39463 4.37135 8.15859 4.79472 8.87749C5.34062 9.88724 6.0124 10.8211 6.79341 11.656L6.81704 11.69L6.85446 11.718L6.8771 11.7451L6.90467 11.7691C7.7285 12.5657 8.64897 13.2521 9.64377 13.8117C10.781 14.4415 11.4711 14.7388 11.8857 14.863V14.869C12.0068 14.907 12.117 14.9241 12.2283 14.9241C12.5813 14.8975 12.9154 14.7516 13.1774 14.5095C13.4974 14.2212 13.7682 13.8818 13.9789 13.5043V13.4973C14.1768 13.1168 14.1098 12.7583 13.8243 12.515C13.2508 12.0054 12.6306 11.5528 11.9723 11.1633C11.5312 10.92 11.0832 11.0672 10.9021 11.3135L10.5151 11.8102C10.3162 12.0565 9.95588 12.0224 9.95588 12.0224L9.94604 12.0284C7.25715 11.3306 6.53939 8.56209 6.53939 8.56209C6.53939 8.56209 6.50592 8.18562 6.75502 7.99338L7.23943 7.59688C7.47179 7.40464 7.63326 6.95007 7.38416 6.50151C7.00373 5.83144 6.55952 5.20096 6.05793 4.61916C5.94854 4.48223 5.79512 4.38897 5.62472 4.35583L5.62669 4.35683ZM10.1705 3.15332C10.04 3.15332 9.91474 3.20606 9.82242 3.29995C9.7301 3.39384 9.67823 3.52117 9.67823 3.65395C9.67823 3.78672 9.7301 3.91406 9.82242 4.00794C9.91474 4.10183 10.04 4.15457 10.1705 4.15457C11.415 4.15457 12.4488 4.56809 13.267 5.36108C13.6874 5.79463 14.0153 6.30827 14.2299 6.87098C14.4456 7.43468 14.544 8.03643 14.5184 8.63919C14.5129 8.77196 14.5595 8.90152 14.648 8.99934C14.7364 9.09717 14.8595 9.15527 14.99 9.16084C15.1206 9.16642 15.248 9.11902 15.3442 9.02908C15.4404 8.93914 15.4975 8.81402 15.503 8.68124C15.5335 7.9398 15.4125 7.19997 15.1476 6.50852C14.8815 5.81379 14.478 5.18198 13.9621 4.6522L13.9523 4.64218C12.9372 3.65595 11.6533 3.15332 10.1705 3.15332Z" fill="white"/>
<path d="M10.1361 4.79934C10.0055 4.79934 9.88031 4.85209 9.78799 4.94597C9.69566 5.03986 9.6438 5.16719 9.6438 5.29997C9.6438 5.43274 9.69566 5.56008 9.78799 5.65396C9.88031 5.74785 10.0055 5.80059 10.1361 5.80059H10.1528C11.0508 5.86568 11.7045 6.17006 12.1624 6.66968C12.632 7.18433 12.8752 7.82413 12.8565 8.61512C12.8535 8.74789 12.9025 8.87644 12.9927 8.97249C13.0829 9.06853 13.2069 9.12421 13.3374 9.12726C13.468 9.13031 13.5944 9.0805 13.6889 8.98877C13.7833 8.89705 13.8381 8.77092 13.8411 8.63815C13.8647 7.59985 13.5358 6.70373 12.884 5.98883V5.98683C12.2175 5.25992 11.3028 4.87544 10.2021 4.80034L10.1853 4.79834L10.1361 4.79934Z" fill="white"/>
<path d="M10.1173 6.47655C10.0515 6.47064 9.98509 6.47828 9.92218 6.49904C9.85926 6.51979 9.80111 6.55322 9.75119 6.59734C9.70126 6.64145 9.66059 6.69534 9.6316 6.75579C9.60261 6.81625 9.5859 6.88202 9.58245 6.94919C9.57901 7.01635 9.58891 7.08354 9.61157 7.14673C9.63423 7.20992 9.66917 7.26781 9.71432 7.31697C9.75946 7.36612 9.81388 7.40551 9.87433 7.4328C9.93478 7.46009 10 7.47472 10.0661 7.4758C10.4777 7.49783 10.7406 7.62398 10.906 7.7932C11.0724 7.96341 11.1964 8.23675 11.2191 8.66429C11.2203 8.73147 11.2348 8.79771 11.2618 8.85907C11.2887 8.92043 11.3275 8.97564 11.3759 9.02143C11.4243 9.06721 11.4812 9.10262 11.5433 9.12555C11.6054 9.14848 11.6714 9.15846 11.7374 9.1549C11.8034 9.15134 11.868 9.1343 11.9274 9.10481C11.9867 9.07532 12.0397 9.03397 12.083 8.98324C12.1263 8.93251 12.1591 8.87342 12.1795 8.80951C12.1999 8.74559 12.2075 8.67816 12.2017 8.61122C12.1702 8.01047 11.9851 7.4798 11.606 7.08931C11.225 6.69882 10.7061 6.50859 10.1173 6.47655Z" fill="white"/>
<path fill-rule="evenodd" clip-rule="evenodd" d="M4.74253 0.534141C7.87553 -0.178047 11.1245 -0.178047 14.2575 0.534141L14.5913 0.609235C15.5071 0.817446 16.3483 1.2798 17.0213 1.94493C17.6943 2.61006 18.1728 3.45191 18.4036 4.37695C19.1988 7.56383 19.1988 10.9022 18.4036 14.0891C18.1728 15.0142 17.6943 15.856 17.0213 16.5211C16.3483 17.1863 15.5071 17.6486 14.5913 17.8568L14.2565 17.9319C12.2943 18.3782 10.2808 18.5463 8.27323 18.4315L5.66114 20.8085C5.56266 20.8982 5.44233 20.9593 5.31269 20.9856C5.18305 21.0118 5.04886 21.0022 4.92413 20.9577C4.7994 20.9132 4.68871 20.8354 4.60359 20.7326C4.51848 20.6297 4.46208 20.5056 4.44026 20.373L4.00803 17.7477C3.1792 17.4854 2.43035 17.0114 1.83307 16.3708C1.23578 15.7303 0.81002 14.9447 0.596468 14.0891C-0.198823 10.9022 -0.198823 7.56383 0.596468 4.37695C0.827272 3.45191 1.30576 2.61006 1.97875 1.94493C2.65175 1.2798 3.4929 0.817446 4.40876 0.609235L4.74253 0.534141ZM13.9355 1.99897C11.0146 1.33495 7.98546 1.33495 5.06449 1.99897L4.72973 2.07507C4.08062 2.22291 3.4845 2.55082 3.00758 3.02239C2.53066 3.49395 2.19159 4.09072 2.02805 4.74642C1.29327 7.69083 1.29327 10.7752 2.02805 13.7197C2.19167 14.3755 2.53088 14.9723 3.00799 15.4439C3.4851 15.9155 4.08142 16.2433 4.73071 16.391L4.81933 16.411C4.96268 16.4436 5.0932 16.519 5.19423 16.6274C5.29525 16.7358 5.36217 16.8725 5.38644 17.0198L5.67591 18.78L7.51904 17.1029C7.59265 17.0357 7.67877 16.9843 7.7723 16.9516C7.86583 16.9189 7.96486 16.9057 8.06351 16.9126C10.0317 17.0546 12.0098 16.9045 13.9355 16.4671L14.2693 16.391C14.9186 16.2433 15.5149 15.9155 15.992 15.4439C16.4691 14.9723 16.8084 14.3755 16.972 13.7197C17.7065 10.776 17.7065 7.6911 16.972 4.74642C16.8084 4.09059 16.4691 3.49374 15.992 3.02216C15.5149 2.55058 14.9186 2.22275 14.2693 2.07507L13.9355 1.99897Z" fill="white"/>
</svg>
